<svg width="60" height="60" viewBox="0 0 60 60" fill="none" xmlns="http://www.w3.org/2000/svg">
<g clip-path="url(#clip0_6_1278)">
<circle cx="30" cy="30" r="30" fill="#F2F6FF"/>
<path d="M18.512 36.144C18.224 36.144 17.99 36.078 17.81 35.946C17.642 35.814 17.54 35.64 17.504 35.424C17.468 35.196 17.51 34.944 17.63 34.668L22.382 24.138C22.538 23.79 22.724 23.544 22.94 23.4C23.168 23.244 23.426 23.166 23.714 23.166C23.99 23.166 24.236 23.244 24.452 23.4C24.68 23.544 24.872 23.79 25.028 24.138L29.798 34.668C29.93 34.944 29.978 35.196 29.942 35.424C29.906 35.652 29.804 35.832 29.636 35.964C29.468 36.084 29.246 36.144 28.97 36.144C28.634 36.144 28.37 36.066 28.178 35.91C27.998 35.742 27.836 35.49 27.692 35.154L26.522 32.436L27.494 33.066H19.898L20.87 32.436L19.718 35.154C19.562 35.502 19.4 35.754 19.232 35.91C19.064 36.066 18.824 36.144 18.512 36.144ZM23.678 25.812L21.158 31.806L20.69 31.23H26.702L26.252 31.806L23.714 25.812H23.678ZM33.0045 36C32.6085 36 32.3025 35.898 32.0865 35.694C31.8825 35.478 31.7805 35.172 31.7805 34.776V24.534C31.7805 24.138 31.8825 23.838 32.0865 23.634C32.3025 23.418 32.6085 23.31 33.0045 23.31H37.3245C38.2125 23.31 38.9685 23.442 39.5925 23.706C40.2165 23.97 40.6905 24.348 41.0145 24.84C41.3505 25.332 41.5185 25.92 41.5185 26.604C41.5185 27.372 41.2965 28.02 40.8525 28.548C40.4085 29.076 39.8025 29.43 39.0345 29.61V29.34C39.9225 29.472 40.6125 29.808 41.1045 30.348C41.5965 30.888 41.8425 31.59 41.8425 32.454C41.8425 33.582 41.4585 34.458 40.6905 35.082C39.9345 35.694 38.8785 36 37.5225 36H33.0045ZM33.9945 34.254H37.2345C38.0505 34.254 38.6505 34.098 39.0345 33.786C39.4185 33.462 39.6105 32.982 39.6105 32.346C39.6105 31.698 39.4185 31.218 39.0345 30.906C38.6505 30.594 38.0505 30.438 37.2345 30.438H33.9945V34.254ZM33.9945 28.692H36.9285C37.7205 28.692 38.3085 28.542 38.6925 28.242C39.0885 27.93 39.2865 27.474 39.2865 26.874C39.2865 26.274 39.0885 25.824 38.6925 25.524C38.3085 25.212 37.7205 25.056 36.9285 25.056H33.9945V28.692Z" fill="#234CAD"/>
<g clip-path="url(#clip1_6_1278)">
<circle cx="52" cy="8" r="7" fill="#234CAD" stroke="white" stroke-width="2"/>
<path d="M50.798 10C50.67 10 50.576 9.972 50.516 9.916C50.46 9.856 50.432 9.77 50.432 9.658C50.432 9.59 50.45 9.524 50.486 9.46C50.522 9.396 50.574 9.328 50.642 9.256L51.848 7.972C52.032 7.78 52.164 7.606 52.244 7.45C52.324 7.29 52.364 7.13 52.364 6.97C52.364 6.77 52.3 6.618 52.172 6.514C52.048 6.41 51.866 6.358 51.626 6.358C51.49 6.358 51.354 6.378 51.218 6.418C51.082 6.454 50.944 6.518 50.804 6.61C50.732 6.658 50.664 6.678 50.6 6.67C50.54 6.662 50.486 6.636 50.438 6.592C50.394 6.548 50.364 6.494 50.348 6.43C50.332 6.366 50.334 6.302 50.354 6.238C50.378 6.17 50.426 6.112 50.498 6.064C50.67 5.948 50.862 5.86 51.074 5.8C51.29 5.74 51.506 5.71 51.722 5.71C52.026 5.71 52.282 5.756 52.49 5.848C52.698 5.94 52.856 6.074 52.964 6.25C53.072 6.426 53.126 6.64 53.126 6.892C53.126 7.06 53.098 7.224 53.042 7.384C52.99 7.544 52.908 7.706 52.796 7.87C52.688 8.034 52.546 8.208 52.37 8.392L51.242 9.568V9.364H53.006C53.114 9.364 53.196 9.39 53.252 9.442C53.308 9.494 53.336 9.572 53.336 9.676C53.336 9.78 53.308 9.86 53.252 9.916C53.196 9.972 53.114 10 53.006 10H50.798Z" fill="#F7FAFC"/>
</g>
</g>
<defs>
<clipPath id="clip0_6_1278">
<rect width="60" height="60" fill="white"/>
</clipPath>
<clipPath id="clip1_6_1278">
<rect width="16" height="16" fill="white" transform="translate(44)"/>
</clipPath>
</defs>
</svg>
