<svg width="60" height="60" viewBox="0 0 60 60" fill="none" xmlns="http://www.w3.org/2000/svg">
<g clip-path="url(#clip0_6_1309)">
<circle cx="30" cy="30" r="30" fill="#F2F6FF"/>
<path d="M21.828 36.126C21.492 36.138 21.228 36.048 21.036 35.856C20.844 35.664 20.748 35.418 20.748 35.118C20.748 34.89 20.82 34.692 20.964 34.524C21.096 34.344 21.294 34.248 21.558 34.236L22.098 34.2C22.626 34.164 23.022 34.002 23.286 33.714C23.562 33.414 23.7 32.988 23.7 32.436V24.336C23.7 23.952 23.796 23.664 23.988 23.472C24.192 23.268 24.48 23.166 24.852 23.166C25.224 23.166 25.506 23.268 25.698 23.472C25.902 23.664 26.004 23.952 26.004 24.336V32.418C26.004 33.174 25.866 33.816 25.59 34.344C25.326 34.872 24.93 35.286 24.402 35.586C23.874 35.874 23.22 36.042 22.44 36.09L21.828 36.126ZM33.1233 36.18C32.5953 36.18 32.0673 36.138 31.5393 36.054C31.0113 35.982 30.5133 35.868 30.0453 35.712C29.5773 35.544 29.1573 35.34 28.7853 35.1C28.5693 34.956 28.4193 34.782 28.3353 34.578C28.2513 34.374 28.2213 34.176 28.2453 33.984C28.2813 33.78 28.3593 33.606 28.4793 33.462C28.6113 33.306 28.7733 33.21 28.9653 33.174C29.1573 33.138 29.3673 33.192 29.5953 33.336C30.1233 33.648 30.6813 33.876 31.2693 34.02C31.8573 34.164 32.4753 34.236 33.1233 34.236C34.0713 34.236 34.7613 34.08 35.1933 33.768C35.6253 33.444 35.8413 33.03 35.8413 32.526C35.8413 32.106 35.6853 31.776 35.3733 31.536C35.0733 31.296 34.5513 31.098 33.8073 30.942L31.8273 30.528C30.6873 30.288 29.8353 29.886 29.2713 29.322C28.7193 28.746 28.4433 27.99 28.4433 27.054C28.4433 26.466 28.5633 25.932 28.8033 25.452C29.0433 24.972 29.3793 24.558 29.8113 24.21C30.2553 23.862 30.7773 23.598 31.3773 23.418C31.9893 23.226 32.6613 23.13 33.3933 23.13C34.1133 23.13 34.7973 23.22 35.4453 23.4C36.0933 23.58 36.6753 23.844 37.1913 24.192C37.3833 24.324 37.5093 24.486 37.5693 24.678C37.6413 24.87 37.6593 25.062 37.6233 25.254C37.5873 25.434 37.5033 25.59 37.3713 25.722C37.2393 25.854 37.0713 25.932 36.8673 25.956C36.6753 25.98 36.4533 25.92 36.2013 25.776C35.7573 25.524 35.3073 25.344 34.8513 25.236C34.3953 25.128 33.9033 25.074 33.3753 25.074C32.8233 25.074 32.3493 25.152 31.9533 25.308C31.5573 25.464 31.2513 25.686 31.0353 25.974C30.8313 26.25 30.7293 26.58 30.7293 26.964C30.7293 27.396 30.8733 27.744 31.1613 28.008C31.4493 28.26 31.9413 28.458 32.6373 28.602L34.5993 29.016C35.7873 29.268 36.6693 29.664 37.2453 30.204C37.8333 30.744 38.1273 31.464 38.1273 32.364C38.1273 32.94 38.0073 33.462 37.7673 33.93C37.5393 34.398 37.2033 34.8 36.7593 35.136C36.3273 35.472 35.8053 35.73 35.1933 35.91C34.5813 36.09 33.8913 36.18 33.1233 36.18Z" fill="#234CAD"/>
</g>
<g clip-path="url(#clip1_6_1309)">
<circle cx="52" cy="8" r="7" fill="#234CAD" stroke="white" stroke-width="2"/>
<path d="M51.716 10.06C51.5 10.06 51.276 10.032 51.044 9.976C50.812 9.92 50.61 9.836 50.438 9.724C50.358 9.672 50.304 9.612 50.276 9.544C50.248 9.476 50.24 9.412 50.252 9.352C50.268 9.288 50.298 9.234 50.342 9.19C50.39 9.146 50.448 9.12 50.516 9.112C50.588 9.104 50.666 9.122 50.75 9.166C50.914 9.254 51.072 9.318 51.224 9.358C51.376 9.394 51.532 9.412 51.692 9.412C51.868 9.412 52.016 9.388 52.136 9.34C52.256 9.292 52.346 9.22 52.406 9.124C52.47 9.028 52.502 8.912 52.502 8.776C52.502 8.576 52.434 8.428 52.298 8.332C52.166 8.232 51.972 8.182 51.716 8.182H51.332C51.22 8.182 51.134 8.154 51.074 8.098C51.018 8.042 50.99 7.964 50.99 7.864C50.99 7.764 51.018 7.686 51.074 7.63C51.134 7.574 51.22 7.546 51.332 7.546H51.644C51.796 7.546 51.926 7.522 52.034 7.474C52.142 7.422 52.226 7.35 52.286 7.258C52.346 7.166 52.376 7.054 52.376 6.922C52.376 6.738 52.314 6.598 52.19 6.502C52.07 6.406 51.894 6.358 51.662 6.358C51.514 6.358 51.374 6.376 51.242 6.412C51.114 6.444 50.972 6.506 50.816 6.598C50.744 6.642 50.674 6.66 50.606 6.652C50.542 6.644 50.488 6.618 50.444 6.574C50.4 6.53 50.37 6.478 50.354 6.418C50.338 6.354 50.342 6.29 50.366 6.226C50.39 6.158 50.44 6.1 50.516 6.052C50.688 5.94 50.878 5.856 51.086 5.8C51.294 5.74 51.508 5.71 51.728 5.71C52.02 5.71 52.27 5.756 52.478 5.848C52.686 5.936 52.844 6.064 52.952 6.232C53.064 6.396 53.12 6.596 53.12 6.832C53.12 7 53.088 7.154 53.024 7.294C52.96 7.43 52.87 7.546 52.754 7.642C52.638 7.738 52.498 7.806 52.334 7.846V7.774C52.622 7.822 52.846 7.942 53.006 8.134C53.166 8.322 53.246 8.558 53.246 8.842C53.246 9.09 53.184 9.306 53.06 9.49C52.936 9.674 52.76 9.816 52.532 9.916C52.304 10.012 52.032 10.06 51.716 10.06Z" fill="#F7FAFC"/>
</g>
<defs>
<clipPath id="clip0_6_1309">
<rect width="60" height="60" fill="white"/>
</clipPath>
<clipPath id="clip1_6_1309">
<rect width="16" height="16" fill="white" transform="translate(44)"/>
</clipPath>
</defs>
</svg>
